<?xml version="1.0" encoding="UTF-8" standalone="no"?>
<svg width="40px" height="40px" viewBox="0 0 40 40" version="1.1" xmlns="http://www.w3.org/2000/svg" xmlns:xlink="http://www.w3.org/1999/xlink" xmlns:sketch="http://www.bohemiancoding.com/sketch/ns">
    <!-- Generator: Sketch 3.3.3 (12081) - http://www.bohemiancoding.com/sketch -->
    <title>Group</title>
    <desc>Created with Sketch.</desc>
    <defs></defs>
    <g id="Page-1" stroke="none" stroke-width="1" fill="none" fill-rule="evenodd" sketch:type="MSPage">
        <g id="Artboard-2" sketch:type="MSArtboardGroup" stroke="#18BC9C" stroke-width="2">
            <g id="Group" sketch:type="MSLayerGroup" transform="translate(-1.000000, 0.000000)">
                <path d="M0.999999999,30.1088285 C6.53727293,30.1088287 6.19877104,20.0029057 11,20.0029057 L31,20.0029057 C37.2117653,20.0029057 34.7921104,9.89698302 41,9.89698302" id="Path-18" sketch:type="MSShapeGroup"></path>
                <path d="M0.999999999,30.1088285 C6.53727293,30.1088287 6.19877104,20.0029057 11,20.0029057 L31,20.0029057 C37.2117653,20.0029057 34.7921104,9.89698302 41,9.89698302" id="Path-18-Copy-3" sketch:type="MSShapeGroup" transform="translate(21.000000, 20.002906) scale(1, -1) translate(-21.000000, -20.002906) "></path>
                <path d="M0.999999999,30.1088285 C6.53727293,30.1088287 6.19877104,20.0029057 11,20.0029057 L31,20.0029057 C37.2117653,20.0029057 34.7921104,9.89698302 41,9.89698302" id="Path-18-Copy" sketch:type="MSShapeGroup" transform="translate(21.000000, 20.002906) scale(1, -1) rotate(-90.000000) translate(-21.000000, -20.002906) "></path>
                <path d="M0.999999999,30.1088285 C6.53727293,30.1088287 6.19877104,20.0029057 11,20.0029057 L31,20.0029057 C37.2117653,20.0029057 34.7921104,9.89698302 41,9.89698302" id="Path-18-Copy-2" sketch:type="MSShapeGroup" transform="translate(21.000000, 20.002906) scale(-1, -1) rotate(-90.000000) translate(-21.000000, -20.002906) "></path>
            </g>
        </g>
    </g>
</svg>