<?xml version="1.0" encoding="UTF-8" standalone="no"?>
<svg width="240px" height="240px" viewBox="0 0 240 240" version="1.1" xmlns="http://www.w3.org/2000/svg" xmlns:xlink="http://www.w3.org/1999/xlink" xmlns:sketch="http://www.bohemiancoding.com/sketch/ns">
    <!-- Generator: Sketch 3.3.3 (12081) - http://www.bohemiancoding.com/sketch -->
    <title>Girl</title>
    <desc>Created with Sketch.</desc>
    <defs>
        <circle id="path-1" cx="120" cy="120" r="120"></circle>
    </defs>
    <g id="Page-1" stroke="none" stroke-width="1" fill="none" fill-rule="evenodd" sketch:type="MSPage">
        <g id="Artboard-1" sketch:type="MSArtboardGroup" transform="translate(-30.000000, -29.000000)">
            <g id="Girl" sketch:type="MSLayerGroup" transform="translate(30.000000, 29.000000)">
                <mask id="mask-2" sketch:name="Mask" fill="white">
                    <use xlink:href="#path-1"></use>
                </mask>
                <use id="Mask" fill="#F9B858" sketch:type="MSShapeGroup" xlink:href="#path-1"></use>
                <g mask="url(#mask-2)">
                    <g transform="translate(46.875000, 43.187500)">
                        <g id="face" transform="translate(13.125000, 19.687500)">
                            <path d="M10.5206683,146.777454 L106.854934,146.777454 L118.470094,84.7458217 L60.3630836,54.5926578 L0.521807661,69.1083776 L2.83888388,115.371929 L10.5206683,146.777454 Z" id="Path-8" fill="#211A0A" sketch:type="MSShapeGroup"></path>
                            <path d="M15.0932867,177.505164 C15.0932867,177.505164 17.2161123,141.111592 25.3687553,132.809074 C32.5350099,125.511077 59.1309233,119.238272 59.1309233,119.238272 C59.1309233,119.238272 83.0030385,125.546017 92.6227941,132.809074 C101.045734,139.168518 102.943581,177.505164 102.943581,177.505164 L15.0932867,177.505164 Z" id="Path-7" fill="#445767" sketch:type="MSShapeGroup"></path>
                            <path d="M50.3760291,96.1162265 L50.3760291,134.141946 C50.3760291,134.141946 53.0282099,139.901359 59.1021127,139.901359 C65.1760155,139.901359 67.8281964,134.141946 67.8281964,134.141946 L67.8281964,96.1162266 L50.3760291,96.1162265 Z" id="Path-6" fill="#E3B190" sketch:type="MSShapeGroup"></path>
                            <path d="M10.7739909,70.2990042 C10.7739909,70.2990042 18.7320809,115.620966 58.1434293,115.620966 C97.5547778,115.620965 105.188944,75.939498 105.188944,75.939498 C105.188944,75.939498 131.881532,0.21510863 58.1434293,0.21510863 C-7.61705054,0.21510863 10.7739909,70.2990042 10.7739909,70.2990042 Z" id="Path-2" fill="#FDCEB0" sketch:type="MSShapeGroup"></path>
                        </g>
                        <g id="shades">
                            <path d="M71.58642,197.192665 L71.58642,139.077572 C71.58642,139.077572 96.1280385,145.233517 105.747794,152.496574 C114.170734,158.856018 116.068581,197.192664 116.068581,197.192664 L71.58642,197.192665 Z" id="Path-7" fill="#324759" sketch:type="MSShapeGroup"></path>
                            <path d="M71.3777993,115.803727 L71.3777993,159.553502 C77.4517021,159.553502 80.9531964,153.829446 80.9531964,153.829446 L80.9531964,115.803727 L71.3777993,115.803727 Z" id="Path-6" fill="#D9A47F" sketch:type="MSShapeGroup"></path>
                            <path d="M71.2684293,135.308466 C71.2684293,135.308466 72.3657683,135.300687 72.9051607,135.285349 C110.892048,134.205112 118.313944,95.626998 118.313944,95.626998 C118.313944,95.626998 144.610789,21.0252949 72.8977813,19.9151233 C72.3601892,19.906801 71.2684293,19.9026086 71.2684293,19.9026086 L71.2684293,135.308466 Z" id="Path-2" fill="#FEC9A8" sketch:type="MSShapeGroup"></path>
                            <path d="M38.9515069,37.1005555 C38.9515069,37.1005555 43.1312156,48.2522371 61.6460066,53.5064601 C80.1607975,58.760683 117.697225,55.0065443 117.697225,55.0065443 C117.697225,55.0065443 114.923315,84.4952165 118.408398,119.245399 C121.89348,153.995582 105.50288,174.326105 104.464689,175.967336 C103.426497,177.608566 99.0011299,183.080305 108.704763,183.0803 C118.408395,183.080296 145.881249,160.064994 145.881247,139.655198 C145.881244,119.245401 133.221694,93.6851826 133.221693,83.246326 C133.221693,72.8074695 131.202769,39.4610306 126.925621,30.3249279 C122.648474,21.1888252 106.40609,-3.06190623 61.6460075,1.42872015 C16.8859254,5.91934653 14.7095539,39.1121998 13.6322261,44.5296553 C12.5548984,49.9471109 10.0853873,89.688826 4.76338673,104.15039 C-0.558613792,118.611955 -1.26675889,131.683912 1.9344399,145.734712 C4.7633869,158.151613 32.489522,181.784543 35.7205145,183.080303 C38.9515069,184.376064 43.1950256,182.675725 40.9930547,176.37102 C38.7910837,170.066315 24.4135315,153.213642 24.4135315,133.177782 C24.4135315,113.141922 26.8124512,102.434832 26.8124516,83.2463289 C26.8124518,76.7125206 26.8364338,55.4002275 29.0384065,49.9649414 C31.2403792,44.5296553 38.9515069,37.1005555 38.9515069,37.1005555 Z" id="Path-1" fill="#3F3124" sketch:type="MSShapeGroup"></path>
                            <path d="M82.7681129,22.9687509 C71.5852723,35.533648 71.2333124,55.3053894 71.2333124,55.3053894 C90.6978159,57.6073972 117.697225,55.0065443 117.697225,55.0065443 C117.697225,55.0065443 114.923315,84.4952165 118.408398,119.245399 C121.89348,153.995582 105.50288,174.326105 104.464689,175.967336 C103.426497,177.608566 99.0011299,183.080305 108.704763,183.0803 C118.408395,183.080296 145.881249,160.064994 145.881247,139.655198 C145.881244,119.245401 133.221694,93.6851826 133.221693,83.246326 C133.221693,72.8074695 131.202769,39.4610306 126.925621,30.3249279 C122.981203,21.8995447 108.512014,0.649449011 71.2333124,0.911640273 C71.2333124,0.911640273 95.7326256,8.40198977 82.7681129,22.9687509 Z" id="Path-1" fill="#35271A" sketch:type="MSShapeGroup"></path>
                            <path d="M48.2866544,98.8210701 C48.2866544,98.8210701 63.7445088,100.412899 70.9536351,100.412899 C79.4384517,100.412899 95.3684831,98.8210701 95.3684831,98.8210701 C95.3684831,98.8210701 93.7191801,120.32681 70.9536351,120.32681 C48.1880902,120.32681 48.2866544,98.8210701 48.2866544,98.8210701 Z" id="Path-3" fill="#4A1500" sketch:type="MSShapeGroup"></path>
                            <path d="M49.927669,106.638433 C49.927669,106.116104 60.3972827,100.627693 71.6430832,100.627693 C82.8888836,100.627693 93.1524665,106.227254 93.0972787,106.638433 C93.042091,107.049612 88.4348598,120.503815 71.4579566,120.503816 C52.2792195,120.503818 49.927669,107.160762 49.927669,106.638433 Z" id="Path-5" fill="#D2605F" sketch:type="MSShapeGroup"></path>
                            <path d="M71.25,100.610363 C82.4958004,100.610363 93.1524665,106.227254 93.0972787,106.638433 C93.042091,107.049612 88.2269033,120.402475 71.25,120.402476 L71.25,100.610363 Z" id="Path-5" fill="#C65150" sketch:type="MSShapeGroup"></path>
                            <path d="M52.4295627,99.2046905 C52.4295627,99.2046905 65.3537286,100.404116 70.9581599,100.385927 C76.882504,100.366701 91.5778102,99.1593647 91.5778102,99.1593647 L91.5778102,103.288643 L52.4295627,103.288643 L52.4295627,99.2046905 Z" id="Path-4" fill="#FFF2EE" sketch:type="MSShapeGroup"></path>
                            <path d="M71.2499999,100.389177 C71.2499999,100.389177 71.1959821,100.390468 71.31986,100.389177 C77.4581564,100.325173 91.5778102,99.1651313 91.5778102,99.1651313 L91.5778102,103.29441 L71.2499999,103.29441 L71.2499999,100.389177 Z" id="Path-4" fill="#FAE8E2" sketch:type="MSShapeGroup"></path>
                            <path d="M69.8600604,82.265625 L69.8600604,93.4602163 C69.8600604,93.4602163 75.5758178,93.484742 75.5758178,89.0930456 C75.5758178,84.7013492 69.8600604,82.265625 69.8600604,82.265625 Z" id="Path-9" fill="#EEBB9B" sketch:type="MSShapeGroup"></path>
                            <ellipse id="Oval-1" fill="#2C1D00" sketch:type="MSShapeGroup" cx="55.1677215" cy="72.8359375" rx="4.62816456" ry="4.62239583"></ellipse>
                            <ellipse id="Oval-1-Copy" fill="#2C1D00" sketch:type="MSShapeGroup" cx="86.6392405" cy="72.8359375" rx="4.62816456" ry="4.62239583"></ellipse>
                            <ellipse id="Oval-3" fill="#F0F5F7" sketch:type="MSShapeGroup" cx="56.4636076" cy="72.0963542" rx="0.925632911" ry="0.924479167"></ellipse>
                            <ellipse id="Oval-3-Copy" fill="#F0F5F7" sketch:type="MSShapeGroup" cx="87.9351266" cy="72.0963542" rx="0.925632911" ry="0.924479167"></ellipse>
                            <path d="M60.0247523,63.964472 C60.0247523,63.964472 54.1313346,59.2456058 46.5305404,63.964472" id="Path-10" stroke="#3F3124" stroke-width="2" stroke-linecap="round" sketch:type="MSShapeGroup"></path>
                            <path d="M94.5796605,63.964472 C94.5796605,63.964472 88.6862429,59.2456058 81.0854487,63.964472" id="Path-10-Copy" stroke="#3F3124" stroke-width="2" stroke-linecap="round" sketch:type="MSShapeGroup"></path>
                        </g>
                    </g>
                </g>
            </g>
        </g>
    </g>
</svg>